<svg xmlns="http://www.w3.org/2000/svg" width="21.318" height="22.5" viewBox="0 0 21.318 22.5">
  <g id="그룹_475365" data-name="그룹 475365" transform="translate(0 0)">
    <path id="패스_40368" data-name="패스 40368" d="M16.461,19.693A2.807,2.807,0,0,1,13.654,22.5H2.806A2.807,2.807,0,0,1,0,19.693V2.806A2.807,2.807,0,0,1,2.806,0H13.654a2.807,2.807,0,0,1,2.806,2.806.936.936,0,1,1-1.871,0,.935.935,0,0,0-.935-.935H2.806a.935.935,0,0,0-.935.935V19.693a.935.935,0,0,0,.935.935H13.654a.935.935,0,0,0,.935-.935.936.936,0,0,1,1.871,0" transform="translate(0 0)" fill="#111"/>
    <path id="패스_40369" data-name="패스 40369" d="M20.139,9.854,16.4,6.112A.939.939,0,0,0,15.069,7.44L17.22,9.583H8.249a.936.936,0,0,0,0,1.871H17.22L15.069,13.6a.935.935,0,0,0-.006,1.322l.006.006a.936.936,0,0,0,1.323.006l0-.006,3.742-3.741a.971.971,0,0,0,0-1.329" transform="translate(0.916 0.731)" fill="#111"/>
  </g>
</svg>
