<svg xmlns="http://www.w3.org/2000/svg" width="26" height="26" viewBox="0 0 26 26">
  <g id="icon_coupon_26" transform="translate(-1400 -74)">
    <rect id="사각형_826" data-name="사각형 826" width="26" height="26" transform="translate(1400 74)" fill="none"/>
    <g id="그룹_490887" data-name="그룹 490887" transform="translate(13 -4)">
      <path id="사각형_350569" data-name="사각형 350569" d="M4,1.6A2.091,2.091,0,0,0,1.8,3.556v8.889A2.091,2.091,0,0,0,4,14.4H22a2.091,2.091,0,0,0,2.2-1.956V3.556A2.091,2.091,0,0,0,22,1.6H4M4,0H22a3.8,3.8,0,0,1,4,3.556v8.889A3.8,3.8,0,0,1,22,16H4a3.8,3.8,0,0,1-4-3.556V3.556A3.8,3.8,0,0,1,4,0Z" transform="translate(1387 83)" fill="#111"/>
      <path id="패스_40365" data-name="패스 40365" d="M0,12.211a.9.9,0,0,1-.9-.9v-.5a.9.9,0,0,1,.9-.9.9.9,0,0,1,.9.9v.5A.9.9,0,0,1,0,12.211Zm0-3.7a.9.9,0,0,1-.9-.9v-.5a.9.9,0,0,1,.9-.9.9.9,0,0,1,.9.9v.5A.9.9,0,0,1,0,8.511Zm0-3.7a.9.9,0,0,1-.9-.9v-.5a.9.9,0,0,1,.9-.9.9.9,0,0,1,.9.9v.5A.9.9,0,0,1,0,4.811Zm0-3.7a.9.9,0,0,1-.9-.9v-.5a.9.9,0,0,1,.9-.9.9.9,0,0,1,.9.9v.5A.9.9,0,0,1,0,1.111Z" transform="translate(1395.5 85.489)" fill="#111"/>
    </g>
  </g>
</svg>
