<svg id="icon_search_22" xmlns="http://www.w3.org/2000/svg" width="22" height="22" viewBox="0 0 22 22">
  <rect id="사각형_1040" data-name="사각형 1040" width="22" height="22" fill="none"/>
  <g id="그룹_899" data-name="그룹 899" transform="translate(1.787 1.687)">
    <path id="합치기_4" data-name="합치기 4" d="M2.485,14.485A8.486,8.486,0,0,1,8.486,0a8.486,8.486,0,0,1,6,14.485,8.487,8.487,0,0,1-12,0Zm-.961-6A6.961,6.961,0,1,0,8.486,1.525,6.968,6.968,0,0,0,1.524,8.487Z" transform="translate(0 0)" fill="#111"/>
    <path id="합치기_3" data-name="합치기 3" d="M4.085,5.163.223,1.3A.763.763,0,1,1,1.3.223L5.162,4.085a.762.762,0,0,1,0,1.077.761.761,0,0,1-1.077,0Z" transform="translate(13.24 13.239)" fill="#111"/>
  </g>
</svg>
